<svg width="200" height="40" viewBox="0 0 200 40" fill="none" xmlns="http://www.w3.org/2000/svg">
<path fill-rule="evenodd" clip-rule="evenodd" d="M21.3488 11.675H23.3007C27.7324 11.675 31.325 15.2676 31.325 19.6993C31.325 24.131 27.7324 27.7236 23.3007 27.7236H21.3488L21.3488 27.7235H12.6738V19.0486H21.3488L21.3488 11.675ZM12.6738 36.3986V3H23.3007C32.5234 3 40 10.4765 40 19.6993C40 28.9221 32.5234 36.3986 23.3007 36.3986H12.6738Z" fill="#1F7DFE"/>
<rect x="4" y="19.0486" width="8.67496" height="8.67496" fill="#00FFFF"/>
<path d="M59.5123 11.2481C61.2723 11.2481 62.8162 11.5921 64.1443 12.2801C65.4883 12.9681 66.5203 13.9521 67.2403 15.2321C67.9763 16.4961 68.3443 17.9681 68.3443 19.6481C68.3443 21.3281 67.9763 22.8001 67.2403 24.0641C66.5203 25.3121 65.4883 26.2801 64.1443 26.9681C62.8162 27.6561 61.2723 28.0001 59.5123 28.0001H53.6562V11.2481H59.5123ZM59.3923 25.1441C61.1523 25.1441 62.5122 24.6641 63.4722 23.7041C64.4323 22.7441 64.9123 21.3921 64.9123 19.6481C64.9123 17.9041 64.4323 16.5441 63.4722 15.5681C62.5122 14.5761 61.1523 14.0801 59.3923 14.0801H57.0163V25.1441H59.3923Z" fill="white"/>
<path d="M72.5634 13.1201C71.9714 13.1201 71.4754 12.9361 71.0754 12.5681C70.6914 12.1841 70.4994 11.7121 70.4994 11.1521C70.4994 10.5921 70.6914 10.1281 71.0754 9.76008C71.4754 9.37608 71.9714 9.18408 72.5634 9.18408C73.1554 9.18408 73.6434 9.37608 74.0274 9.76008C74.4274 10.1281 74.6274 10.5921 74.6274 11.1521C74.6274 11.7121 74.4274 12.1841 74.0274 12.5681C73.6434 12.9361 73.1554 13.1201 72.5634 13.1201ZM74.2194 14.7041V28.0001H70.8594V14.7041H74.2194Z" fill="white"/>
<path d="M80.8991 16.6241C81.3311 16.0161 81.9231 15.5121 82.6751 15.1121C83.4431 14.6961 84.3151 14.4881 85.2911 14.4881C86.4271 14.4881 87.4511 14.7681 88.3631 15.3281C89.2911 15.8881 90.0191 16.6881 90.5471 17.7281C91.0911 18.7521 91.3631 19.9441 91.3631 21.3041C91.3631 22.6641 91.0911 23.8721 90.5471 24.9281C90.0191 25.9681 89.2911 26.7761 88.3631 27.3521C87.4511 27.9281 86.4271 28.2161 85.2911 28.2161C84.3151 28.2161 83.4511 28.0161 82.6991 27.6161C81.9631 27.2161 81.3631 26.7121 80.8991 26.1041V34.3361H77.5391V14.7041H80.8991V16.6241ZM87.9311 21.3041C87.9311 20.5041 87.7631 19.8161 87.4271 19.2401C87.1071 18.6481 86.6751 18.2001 86.1311 17.8961C85.6031 17.5921 85.0271 17.4401 84.4031 17.4401C83.7951 17.4401 83.2191 17.6001 82.6751 17.9201C82.1471 18.2241 81.7151 18.6721 81.3791 19.2641C81.0591 19.8561 80.8991 20.5521 80.8991 21.3521C80.8991 22.1521 81.0591 22.8481 81.3791 23.4401C81.7151 24.0321 82.1471 24.4881 82.6751 24.8081C83.2191 25.1121 83.7951 25.2641 84.4031 25.2641C85.0271 25.2641 85.6031 25.1041 86.1311 24.7841C86.6751 24.4641 87.1071 24.0081 87.4271 23.4161C87.7631 22.8241 87.9311 22.1201 87.9311 21.3041Z" fill="white"/>
<path d="M99.7087 28.2161C98.4287 28.2161 97.2767 27.9361 96.2527 27.3761C95.2287 26.8001 94.4207 25.9921 93.8287 24.9521C93.2527 23.9121 92.9647 22.7121 92.9647 21.3521C92.9647 19.9921 93.2607 18.7921 93.8527 17.7521C94.4607 16.7121 95.2847 15.9121 96.3247 15.3521C97.3647 14.7761 98.5247 14.4881 99.8047 14.4881C101.085 14.4881 102.245 14.7761 103.285 15.3521C104.325 15.9121 105.141 16.7121 105.733 17.7521C106.341 18.7921 106.645 19.9921 106.645 21.3521C106.645 22.7121 106.333 23.9121 105.709 24.9521C105.101 25.9921 104.269 26.8001 103.213 27.3761C102.173 27.9361 101.005 28.2161 99.7087 28.2161ZM99.7087 25.2881C100.317 25.2881 100.885 25.1441 101.413 24.8561C101.957 24.5521 102.389 24.1041 102.709 23.5121C103.029 22.9201 103.189 22.2001 103.189 21.3521C103.189 20.0881 102.853 19.1201 102.181 18.4481C101.525 17.7601 100.717 17.4161 99.7567 17.4161C98.7967 17.4161 97.9887 17.7601 97.3327 18.4481C96.6927 19.1201 96.3727 20.0881 96.3727 21.3521C96.3727 22.6161 96.6847 23.5921 97.3087 24.2801C97.9487 24.9521 98.7487 25.2881 99.7087 25.2881Z" fill="white"/>
<path d="M112.469 10.2401V28.0001H109.109V10.2401H112.469Z" fill="white"/>
<path d="M128.149 21.0641C128.149 21.5441 128.117 21.9761 128.053 22.3601H118.333C118.413 23.3201 118.749 24.0721 119.341 24.6161C119.933 25.1601 120.661 25.4321 121.525 25.4321C122.773 25.4321 123.661 24.8961 124.189 23.8241H127.813C127.429 25.1041 126.693 26.1601 125.605 26.9921C124.517 27.8081 123.181 28.2161 121.597 28.2161C120.317 28.2161 119.165 27.9361 118.141 27.3761C117.133 26.8001 116.341 25.9921 115.765 24.9521C115.205 23.9121 114.925 22.7121 114.925 21.3521C114.925 19.9761 115.205 18.7681 115.765 17.7281C116.325 16.6881 117.109 15.8881 118.117 15.3281C119.125 14.7681 120.285 14.4881 121.597 14.4881C122.861 14.4881 123.989 14.7601 124.981 15.3041C125.989 15.8481 126.765 16.6241 127.309 17.6321C127.869 18.6241 128.149 19.7681 128.149 21.0641ZM124.669 20.1041C124.653 19.2401 124.341 18.5521 123.733 18.0401C123.125 17.5121 122.381 17.2481 121.501 17.2481C120.669 17.2481 119.965 17.5041 119.389 18.0161C118.829 18.5121 118.485 19.2081 118.357 20.1041H124.669Z" fill="white"/>
<path d="M136.386 28.1681C135.218 28.1681 134.162 27.9681 133.218 27.5681C132.29 27.1681 131.554 26.5921 131.01 25.8401C130.466 25.0881 130.186 24.2001 130.17 23.1761H133.77C133.818 23.8641 134.058 24.4081 134.49 24.8081C134.938 25.2081 135.546 25.4081 136.314 25.4081C137.098 25.4081 137.714 25.2241 138.162 24.8561C138.61 24.4721 138.834 23.9761 138.834 23.3681C138.834 22.8721 138.682 22.4641 138.378 22.1441C138.074 21.8241 137.69 21.5761 137.226 21.4001C136.778 21.2081 136.154 21.0001 135.354 20.7761C134.266 20.4561 133.378 20.1441 132.69 19.8401C132.018 19.5201 131.434 19.0481 130.938 18.4241C130.458 17.7841 130.218 16.9361 130.218 15.8801C130.218 14.8881 130.466 14.0241 130.962 13.2881C131.458 12.5521 132.154 11.9921 133.05 11.6081C133.946 11.2081 134.97 11.0081 136.122 11.0081C137.85 11.0081 139.25 11.4321 140.322 12.2801C141.41 13.1121 142.01 14.2801 142.122 15.7841H138.426C138.394 15.2081 138.146 14.7361 137.682 14.3681C137.234 13.9841 136.634 13.7921 135.882 13.7921C135.226 13.7921 134.698 13.9601 134.298 14.2961C133.914 14.6321 133.722 15.1201 133.722 15.7601C133.722 16.2081 133.866 16.5841 134.154 16.8881C134.458 17.1761 134.826 17.4161 135.258 17.6081C135.706 17.7841 136.33 17.9921 137.13 18.2321C138.218 18.5521 139.106 18.8721 139.794 19.1921C140.482 19.5121 141.074 19.9921 141.57 20.6321C142.066 21.2721 142.314 22.1121 142.314 23.1521C142.314 24.0481 142.082 24.8801 141.618 25.6481C141.154 26.4161 140.474 27.0321 139.578 27.4961C138.682 27.9441 137.618 28.1681 136.386 28.1681Z" fill="white"/>
<path d="M163.659 14.7041L159.771 28.0001H156.147L153.723 18.7121L151.299 28.0001H147.651L143.739 14.7041H147.147L149.499 24.8321L152.043 14.7041H155.595L158.091 24.8081L160.443 14.7041H163.659Z" fill="white"/>
<path d="M164.613 21.3041C164.613 19.9601 164.877 18.7681 165.405 17.7281C165.949 16.6881 166.677 15.8881 167.589 15.3281C168.517 14.7681 169.549 14.4881 170.685 14.4881C171.677 14.4881 172.541 14.6881 173.277 15.0881C174.029 15.4881 174.629 15.9921 175.077 16.6001V14.7041H178.461V28.0001H175.077V26.0561C174.645 26.6801 174.045 27.2001 173.277 27.6161C172.525 28.0161 171.653 28.2161 170.661 28.2161C169.541 28.2161 168.517 27.9281 167.589 27.3521C166.677 26.7761 165.949 25.9681 165.405 24.9281C164.877 23.8721 164.613 22.6641 164.613 21.3041ZM175.077 21.3521C175.077 20.5361 174.917 19.8401 174.597 19.2641C174.277 18.6721 173.845 18.2241 173.301 17.9201C172.757 17.6001 172.173 17.4401 171.549 17.4401C170.925 17.4401 170.349 17.5921 169.821 17.8961C169.293 18.2001 168.861 18.6481 168.525 19.2401C168.205 19.8161 168.045 20.5041 168.045 21.3041C168.045 22.1041 168.205 22.8081 168.525 23.4161C168.861 24.0081 169.293 24.4641 169.821 24.7841C170.365 25.1041 170.941 25.2641 171.549 25.2641C172.173 25.2641 172.757 25.1121 173.301 24.8081C173.845 24.4881 174.277 24.0401 174.597 23.4641C174.917 22.8721 175.077 22.1681 175.077 21.3521Z" fill="white"/>
<path d="M185.102 16.6241C185.534 16.0161 186.126 15.5121 186.878 15.1121C187.646 14.6961 188.518 14.4881 189.494 14.4881C190.63 14.4881 191.654 14.7681 192.566 15.3281C193.494 15.8881 194.222 16.6881 194.75 17.7281C195.294 18.7521 195.566 19.9441 195.566 21.3041C195.566 22.6641 195.294 23.8721 194.75 24.9281C194.222 25.9681 193.494 26.7761 192.566 27.3521C191.654 27.9281 190.63 28.2161 189.494 28.2161C188.518 28.2161 187.654 28.0161 186.902 27.6161C186.166 27.2161 185.566 26.7121 185.102 26.1041V34.3361H181.742V14.7041H185.102V16.6241ZM192.134 21.3041C192.134 20.5041 191.966 19.8161 191.63 19.2401C191.31 18.6481 190.878 18.2001 190.334 17.8961C189.806 17.5921 189.23 17.4401 188.606 17.4401C187.998 17.4401 187.422 17.6001 186.878 17.9201C186.35 18.2241 185.918 18.6721 185.582 19.2641C185.262 19.8561 185.102 20.5521 185.102 21.3521C185.102 22.1521 185.262 22.8481 185.582 23.4401C185.918 24.0321 186.35 24.4881 186.878 24.8081C187.422 25.1121 187.998 25.2641 188.606 25.2641C189.23 25.2641 189.806 25.1041 190.334 24.7841C190.878 24.4641 191.31 24.0081 191.63 23.4161C191.966 22.8241 192.134 22.1201 192.134 21.3041Z" fill="white"/>
</svg>
