<svg width="40" height="40" viewBox="0 0 40 40" fill="none" xmlns="http://www.w3.org/2000/svg">
<path fill-rule="evenodd" clip-rule="evenodd" d="M35 6.875V33.125C35 34.1605 34.1046 35 33 35H7C6.44772 35 5.94772 34.7901 5.58579 34.4508C5.22386 34.1115 5 33.6428 5 33.125V30H10V35H7C6.44772 35 5.94772 34.7901 5.58579 34.4508C5.22386 34.1115 5 33.6428 5 33.125V6.875C5 5.83947 5.89543 5 7 5H33H30V10H35V6.875ZM10 10V30H30V10H10Z" fill="white"/>
<path fill-rule="evenodd" clip-rule="evenodd" d="M17 15H23C24.1046 15 25 15.8395 25 16.875V23.125C25 24.1605 24.1046 25 23 25H17C15.8954 25 15 24.1605 15 23.125V16.875C15 15.8395 15.8954 15 17 15Z" fill="#ECB82C"/>
<path fill-rule="evenodd" clip-rule="evenodd" d="M36 0H39C39.5523 0 40 0.419733 40 0.9375V4.0625C40 4.58027 39.5523 5 39 5H36C35.4477 5 35 4.58027 35 4.0625V0.9375C35 0.419733 35.4477 0 36 0Z" fill="#66B7DE"/>
<path fill-rule="evenodd" clip-rule="evenodd" d="M1 35H4C4.55228 35 5 35.4197 5 35.9375V39.0625C5 39.5803 4.55228 40 4 40H1C0.447715 40 0 39.5803 0 39.0625V35.9375C0 35.4197 0.447715 35 1 35Z" fill="#CF326E"/>
</svg>
